<?xml version="1.0" encoding="iso-8859-1"?>
<!-- Uploaded to: SVG Repo, www.svgrepo.com, Generator: SVG Repo Mixer Tools -->
<svg fill="#000000" height="800px" width="800px" version="1.1" id="Layer_1" xmlns="http://www.w3.org/2000/svg" xmlns:xlink="http://www.w3.org/1999/xlink" 
	 viewBox="0 0 512 512" xml:space="preserve">
<g>
	<g>
		<path d="M503.983,110.096c4.427,0,8.017-3.589,8.017-8.017V42.221C512,18.941,493.059,0,469.779,0H42.221
			C18.941,0,0,18.941,0,42.221v333.495c0,23.281,18.941,42.221,42.221,42.221h175.646l-3.716,78.029H179.04
			c-4.427,0-8.017,3.589-8.017,8.017c0,4.427,3.589,8.017,8.017,8.017H332.96c4.427,0,8.017-3.589,8.017-8.017
			c0-4.427-3.589-8.017-8.017-8.017h-35.111l-3.715-78.029h175.645c23.281,0,42.221-18.941,42.221-42.221V144.835
			c0-4.427-3.589-8.017-8.017-8.017c-4.427,0-8.017,3.589-8.017,8.017v205.762H179.04c-4.427,0-8.017,3.589-8.017,8.017
			s3.589,8.017,8.017,8.017h316.927v9.086c0,14.44-11.748,26.188-26.188,26.188H42.221c-14.44,0-26.188-11.748-26.188-26.188v-9.086
			h120.251c4.427,0,8.017-3.589,8.017-8.017s-3.589-8.017-8.017-8.017H16.033V67.34h479.933v34.739
			C495.967,106.507,499.556,110.096,503.983,110.096z M233.918,417.937h44.162l3.717,78.029h-51.594L233.918,417.937z
			 M16.033,51.307v-9.086c0-14.44,11.748-26.188,26.188-26.188h427.557c14.44,0,26.188,11.748,26.188,26.188v9.086H16.033z"/>
	</g>
</g>
<g>
	<g>
		<path d="M264.551,376.251h-17.102c-4.427,0-8.017,3.589-8.017,8.017c0,4.427,3.589,8.017,8.017,8.017h17.102
			c4.427,0,8.017-3.589,8.017-8.017C272.568,379.84,268.979,376.251,264.551,376.251z"/>
	</g>
</g>
<g>
	<g>
		<path d="M102.079,188.125H50.772c-4.427,0-8.017,3.589-8.017,8.017v119.716c0,4.427,3.589,8.017,8.017,8.017h51.307
			c4.427,0,8.017-3.589,8.017-8.017V196.142C110.096,191.715,106.507,188.125,102.079,188.125z M94.063,307.841H58.789V204.159
			h35.273V307.841z"/>
	</g>
</g>
<g>
	<g>
		<path d="M187.591,136.818h-51.307c-4.427,0-8.017,3.589-8.017,8.017v171.023c0,4.427,3.589,8.017,8.017,8.017h51.307
			c4.427,0,8.017-3.589,8.017-8.017V144.835C195.608,140.408,192.018,136.818,187.591,136.818z M179.574,307.841h-35.273v-154.99
			h35.273V307.841z"/>
	</g>
</g>
<g>
	<g>
		<path d="M273.102,94.063h-51.307c-4.427,0-8.017,3.589-8.017,8.017v213.779c0,4.427,3.589,8.017,8.017,8.017h51.307
			c4.427,0,8.017-3.589,8.017-8.017V102.079C281.119,97.652,277.53,94.063,273.102,94.063z M265.086,307.841h-35.273V110.096h35.273
			V307.841z"/>
	</g>
</g>
<g>
	<g>
		<path d="M421.219,138.018c-0.005-0.002-0.01-0.005-0.015-0.006c-9.063-3.629-18.614-5.468-28.386-5.468
			c-42.141,0-76.426,34.285-76.426,76.426s34.285,76.426,76.426,76.426c37.189,0,68.837-26.559,75.254-63.151
			c0-0.001,0.001-0.002,0.001-0.003c0.777-4.431,1.172-8.896,1.172-13.271C469.245,177.554,450.394,149.705,421.219,138.018z
			 M392.818,269.361c-33.3,0-60.392-27.092-60.392-60.392s27.092-60.392,60.392-60.392c5.024,0,9.972,0.616,14.789,1.834
			l-22.232,55.58c-1.862,4.655,1.124,10.004,6.05,10.872l58.954,10.404C442.557,252.076,419.492,269.361,392.818,269.361z
			 M453.156,211.476l-49.232-8.688l18.571-46.425c18.888,10.606,30.716,30.487,30.716,52.606
			C453.211,209.8,453.193,210.636,453.156,211.476z"/>
	</g>
</g>
</svg>